<svg width="12" height="16" viewBox="0 0 12 16" fill="none" xmlns="http://www.w3.org/2000/svg">
<path d="M0 15.2807V1.50198C3.815 1.77698 7.6475 1.78573 11.4637 1.52823C11.6737 1.51448 11.845 1.65823 11.845 1.85073V14.932C11.845 15.1245 11.675 15.2932 11.4637 15.307C7.64653 15.5645 3.816 15.5557 0 15.2807Z" fill="#BDBDBD"/>
<path d="M0 15.2782V1.4995C3.4675 0.735745 6.94875 0.234495 10.4162 0.000745202C10.6075 -0.0117548 10.7625 0.134495 10.7625 0.326995V13.4082C10.7625 13.6007 10.6075 13.767 10.4162 13.7795C6.94875 14.0132 3.4675 14.5145 0 15.2782Z" fill="#E0E0E0"/>
<path d="M1.5166 5.91449C4.0916 5.40449 6.67285 5.03949 9.2466 4.82199" stroke="#616161" stroke-width="0.625" stroke-miterlimit="10" stroke-linecap="round" stroke-linejoin="round"/>
<path d="M1.5166 7.65074C2.61397 7.43291 3.71637 7.24119 4.82285 7.07574" stroke="#616161" stroke-width="0.625" stroke-miterlimit="10" stroke-linecap="round" stroke-linejoin="round"/>
<path d="M1.5166 9.38573C2.61397 9.1679 3.71637 8.97618 4.82285 8.81073" stroke="#616161" stroke-width="0.625" stroke-miterlimit="10" stroke-linecap="round" stroke-linejoin="round"/>
<path d="M1.5166 12.9432C4.0916 12.4332 6.67285 12.0682 9.2466 11.8507" stroke="#616161" stroke-width="0.625" stroke-miterlimit="10" stroke-linecap="round" stroke-linejoin="round"/>
<path d="M1.5166 11.122C2.61397 10.9042 3.71637 10.7124 4.82285 10.547" stroke="#616161" stroke-width="0.625" stroke-miterlimit="10" stroke-linecap="round" stroke-linejoin="round"/>
<path d="M6.02988 10.6907C7.05519 10.5559 8.08336 10.4438 9.11363 10.3545C9.29988 10.3382 9.44988 10.1745 9.44988 9.987V6.5645C9.44988 6.377 9.29863 6.23825 9.11363 6.2545C8.08613 6.34325 7.05863 6.45575 6.02988 6.59075C5.84363 6.61575 5.69238 6.78825 5.69238 6.9745V10.397C5.69363 10.5845 5.84363 10.7157 6.02988 10.6907Z" fill="#616161"/>
<path d="M1.72981 4.17326C1.98356 4.12326 2.23606 4.07576 2.48981 4.02951C2.67606 3.99576 2.82606 3.81701 2.82606 3.62951V2.75201C2.82606 2.56451 2.67481 2.44076 2.48981 2.47451C2.23606 2.52076 1.98356 2.56951 1.72981 2.61826C1.54356 2.65451 1.39356 2.83701 1.39356 3.02326V3.90076C1.39231 4.08826 1.54356 4.20951 1.72981 4.17326Z" fill="#616161"/>
<path d="M3.72492 3.81326C3.97867 3.77076 4.23117 3.73076 4.48492 3.69201C4.67117 3.66326 4.82242 3.48951 4.82242 3.30201V2.42451C4.82242 2.23701 4.67117 2.10826 4.48492 2.13701C4.23117 2.17576 3.97742 2.21701 3.72492 2.25826C3.53867 2.28951 3.38867 2.46701 3.38867 2.65326V3.53076C3.38867 3.71826 3.53867 3.84451 3.72492 3.81326Z" fill="#616161"/>
<path d="M5.72129 3.51198C5.97504 3.47698 6.22879 3.44448 6.48129 3.41198C6.66754 3.38823 6.81879 3.21948 6.81879 3.03198V2.15448C6.81879 1.96698 6.66754 1.83323 6.48129 1.85698C6.22754 1.88823 5.97379 1.92198 5.72129 1.95698C5.53504 1.98198 5.38379 2.15573 5.38379 2.34198V3.21948C5.38504 3.40698 5.53629 3.53698 5.72129 3.51198Z" fill="#616161"/>
</svg>
