<svg width="226" height="734" viewBox="0 0 226 734" fill="none" xmlns="http://www.w3.org/2000/svg">
<g clip-path="url(#clip0)">
<path fill-rule="evenodd" clip-rule="evenodd" d="M138.3 664.64L129.58 693.31L94.7197 694.57L92.3896 651.46L138.3 664.64Z" fill="#F77F89"/>
<path fill-rule="evenodd" clip-rule="evenodd" d="M93.1895 689.61V727.28L187.449 729.41C187.449 729.41 184.769 702.49 136.569 702.05C136.749 690.22 136.769 689.61 136.769 689.61H93.1895Z" fill="#6367FD"/>
<path fill-rule="evenodd" clip-rule="evenodd" d="M50.2002 670.06L50.8502 698.29L87.2502 699.56L96.7102 668.14L50.2002 670.06Z" fill="#F77F89"/>
<path fill-rule="evenodd" clip-rule="evenodd" d="M105.25 0C144.86 0 153.06 37.63 153.08 51.45C153.08 64.62 150.51 66.63 150.6 79.98C150.66 90.12 153.6 97.22 153.33 102.98C151.77 132.98 111.21 141.63 99.6299 141.8C88.0499 141.97 37.6299 132.21 37.6299 108.89C37.6299 92.62 47.9799 66.6 47.6999 48.53C47.0799 11 78.4599 0 105.25 0Z" fill="black"/>
<path fill-rule="evenodd" clip-rule="evenodd" d="M50 693.28L50.54 730.98L143.07 733.07C143.07 733.07 143.07 705.58 92.39 705.07V693.28H50Z" fill="#6367FD"/>
<path fill-rule="evenodd" clip-rule="evenodd" d="M40.9199 410.5L41.1599 674.23L107.28 672.79L108.28 660.58L150.92 666.33L177.98 391.33L163.37 320.91L66.7999 318.27L40.9199 410.5Z" fill="#3B4161"/>
<path fill-rule="evenodd" clip-rule="evenodd" d="M118.819 522.56L158.469 589.19L150.939 665.63L108.229 660.63L118.819 522.56Z" fill="#15192C"/>
<path fill-rule="evenodd" clip-rule="evenodd" d="M90.9998 342H161.24L170.75 238.23L158.06 158.71L134.06 135.6L110 124.86L66.5498 131.5L90.9998 342Z" fill="#F7D167"/>
<path d="M63.3799 673.75L63.8399 393.22" stroke="#737999" stroke-width="1.7" stroke-linecap="round" stroke-linejoin="round"/>
<path fill-rule="evenodd" clip-rule="evenodd" d="M78.9296 123.58C62.5096 124.03 13.4796 141.83 6.31957 159.89C0.879566 173.59 -2.85043 297.55 9.92957 303.6C10.75 303.997 11.6074 304.311 12.4896 304.54C11.7196 308.34 4.35957 396.33 6.22957 403.65C8.09957 410.97 13.0096 422.05 20.1196 421.65C47.6296 420 98.1696 383.89 103.19 378C103.96 366.84 106.09 324.92 106.09 324.92L101.71 200.54L76.6396 132C76.6396 132 95.3496 123.13 78.9296 123.58Z" fill="white"/>
<path fill-rule="evenodd" clip-rule="evenodd" d="M114.71 122.8C142.94 126.31 182.79 148.2 187.92 158.17C192.24 166.55 190.05 275.04 190.05 275.04C190.05 275.04 174.05 296.99 181.26 328.56C187.88 357.68 189.84 396.99 182.9 404.34C171.46 398.55 156.75 375.34 154.1 369.62C151.45 363.9 150.76 331.54 148.72 324.62C146.68 317.7 137.55 195.19 137.55 195.19C137.55 195.19 133.29 145.7 114.71 122.8Z" fill="white"/>
<path d="M43.6396 133.22C57.8496 159.13 86.6397 188.66 101.48 199.93" stroke="#C9C9C9" stroke-width="2" stroke-linecap="round" stroke-linejoin="round"/>
<path d="M129 125.77C141.65 142.83 144.91 171.82 135 201.26" stroke="#C9C9C9" stroke-width="2" stroke-linecap="round" stroke-linejoin="round"/>
<path d="M58 205.6C58 203.373 58.6606 201.195 59.8983 199.343C61.1361 197.491 62.8952 196.048 64.9533 195.196C67.0114 194.344 69.2759 194.122 71.4604 194.557C73.6449 194.992 75.6512 196.066 77.2256 197.641C78.7999 199.217 79.8715 201.225 80.3049 203.409C80.7382 205.594 80.5138 207.859 79.66 209.916C78.8062 211.973 77.3615 213.731 75.5084 214.967C73.6554 216.203 71.4774 216.862 69.25 216.86C66.2654 216.857 63.4039 215.67 61.2944 213.558C59.1849 211.447 58 208.585 58 205.6V205.6Z" stroke="#353823" stroke-width="3.41" stroke-linecap="round" stroke-linejoin="round"/>
<path fill-rule="evenodd" clip-rule="evenodd" d="M63.4795 205.6C63.4795 204.463 63.8167 203.351 64.4485 202.405C65.0804 201.46 65.9784 200.723 67.0291 200.288C68.0797 199.852 69.2359 199.739 70.3513 199.96C71.4667 200.182 72.4912 200.73 73.2954 201.534C74.0995 202.338 74.6471 203.363 74.869 204.478C75.0909 205.594 74.977 206.75 74.5418 207.8C74.1066 208.851 73.3696 209.749 72.424 210.381C71.4784 211.013 70.3667 211.35 69.2295 211.35C67.7045 211.35 66.242 210.744 65.1636 209.666C64.0853 208.588 63.4795 207.125 63.4795 205.6Z" fill="#353823"/>
<path d="M66.2099 194.75C58.6099 166.84 58.1199 128 77.7399 121" stroke="#353823" stroke-width="3.41" stroke-linecap="round" stroke-linejoin="round"/>
<path d="M112 116.25C123.19 120.99 133.85 142.85 136.35 161.57" stroke="#353823" stroke-width="3.41" stroke-linecap="round" stroke-linejoin="round"/>
<path d="M124.27 196.73C120.69 179.43 126.09 163.73 136.33 161.57C146.57 159.41 157.78 171.75 161.33 189.05C164.88 206.35 159.51 222.05 149.27 224.2C139.03 226.35 127.85 214 124.27 196.73Z" stroke="#353823" stroke-width="3.41" stroke-linecap="round" stroke-linejoin="round"/>
<path d="M54.6296 169.52L50.3096 253.63" stroke="#C9C9C9" stroke-width="2" stroke-linecap="round" stroke-linejoin="round"/>
<path d="M42.4697 172L53.6997 187.66" stroke="#C9C9C9" stroke-width="2" stroke-linecap="round" stroke-linejoin="round"/>
<path fill-rule="evenodd" clip-rule="evenodd" d="M79.9993 246.94L36.8193 257.27L79.9993 246.94Z" fill="#606060"/>
<path d="M79.9993 246.94L36.8193 257.27" stroke="#C9C9C9" stroke-width="2" stroke-linecap="round" stroke-linejoin="round"/>
<path d="M39 245.72L50 254.12" stroke="#C9C9C9" stroke-width="2" stroke-linecap="round" stroke-linejoin="round"/>
<path d="M81.6397 295.65C63.4797 302.96 20.3397 311.7 12.1897 304.46C1.28972 294.77 -1.81028 194.76 3.65972 168.23C6.84972 152.79 22.9597 142.85 31.3597 138.85" stroke="#C9C9C9" stroke-width="2" stroke-linecap="round" stroke-linejoin="round"/>
<path d="M68.6598 299.93C63.4798 293.36 61.4998 260.6 63.9998 250.77" stroke="#C9C9C9" stroke-width="2" stroke-linecap="round" stroke-linejoin="round"/>
<path fill-rule="evenodd" clip-rule="evenodd" d="M69.2295 257.17C69.2275 256.647 69.3807 256.136 69.6696 255.701C69.9584 255.265 70.3701 254.925 70.8523 254.724C71.3345 254.523 71.8656 254.469 72.3784 254.57C72.8912 254.67 73.3625 254.921 73.7327 255.29C74.1029 255.659 74.3553 256.129 74.458 256.641C74.5607 257.154 74.509 257.685 74.3095 258.168C74.11 258.651 73.7716 259.064 73.3372 259.354C72.9029 259.645 72.3921 259.8 71.8695 259.8C71.5233 259.801 71.1802 259.734 70.86 259.603C70.5397 259.471 70.2486 259.278 70.0033 259.033C69.7581 258.789 69.5635 258.499 69.4307 258.179C69.2979 257.859 69.2295 257.516 69.2295 257.17Z" fill="#C9C9C9"/>
<path d="M64.4194 337.47C58.6774 339.687 52.5747 340.823 46.4194 340.82C41.8523 340.776 37.313 340.103 32.9294 338.82C32.6001 340.088 32.4222 341.39 32.3994 342.7V363.59C32.3994 367.966 34.1378 372.163 37.2322 375.257C40.3265 378.352 44.5233 380.09 48.8994 380.09C53.2755 380.09 57.4723 378.352 60.5667 375.257C63.661 372.163 65.3994 367.966 65.3994 363.59V342.68C65.3575 340.902 65.0265 339.142 64.4194 337.47Z" stroke="#C9C9C9" stroke-width="2" stroke-linecap="round" stroke-linejoin="round"/>
<path fill-rule="evenodd" clip-rule="evenodd" d="M128.42 190.52H214.65C219.88 190.52 223 194.61 221.65 199.65L188.36 322.11C187.548 324.685 185.958 326.945 183.809 328.58C181.661 330.215 179.058 331.144 176.36 331.24H90.18C84.96 331.24 81.83 327.15 83.18 322.11L116.46 199.65C117.269 197.081 118.852 194.824 120.993 193.19C123.134 191.555 125.728 190.623 128.42 190.52Z" fill="#6367FD"/>
<path fill-rule="evenodd" clip-rule="evenodd" d="M152.22 184.22H201.16C201.703 184.175 202.249 184.268 202.747 184.49C203.245 184.713 203.678 185.058 204.006 185.493C204.335 185.929 204.548 186.44 204.625 186.98C204.703 187.519 204.642 188.07 204.45 188.58L202.07 196.9C201.667 198.13 200.897 199.207 199.863 199.986C198.83 200.766 197.583 201.21 196.29 201.26H147.35C146.807 201.303 146.263 201.208 145.766 200.984C145.27 200.761 144.838 200.416 144.51 199.982C144.182 199.547 143.969 199.037 143.89 198.498C143.812 197.96 143.87 197.41 144.06 196.9L146.44 188.58C146.846 187.352 147.616 186.276 148.649 185.497C149.682 184.718 150.927 184.273 152.22 184.22Z" fill="#3B4161"/>
<path fill-rule="evenodd" clip-rule="evenodd" d="M79.7501 252.94C83.5625 250.735 87.6114 248.967 91.8201 247.67C97.8901 242.67 102.35 222.92 103.96 221.67C105.57 220.42 110.96 221.23 111.12 223.1C111.82 229.95 111.45 237.95 105.38 245.1C123.04 233.87 124.38 228.89 129.24 232.65C134.1 236.41 135.85 254.75 131.68 262.33C120.2 283.25 90.0001 286.08 80.7601 286.22C78.4601 276.27 78.4601 264.24 79.7501 252.94Z" fill="#F77F89"/>
<path d="M41.1494 653.65L109.429 651.46" stroke="#737999" stroke-width="1.7" stroke-linecap="round" stroke-linejoin="round"/>
<path d="M129.17 386.65L108.31 660.59" stroke="#737999" stroke-width="1.7" stroke-linecap="round" stroke-linejoin="round"/>
<path d="M110 638.58L153.12 643.64" stroke="#737999" stroke-width="1.7" stroke-linecap="round" stroke-linejoin="round"/>
<path d="M164.59 527.42C161.951 527.685 159.286 527.361 156.787 526.471C154.288 525.582 152.018 524.149 150.14 522.276C148.262 520.403 146.822 518.137 145.926 515.641C145.029 513.145 144.697 510.481 144.955 507.841C145.212 505.201 146.051 502.651 147.413 500.375C148.775 498.099 150.624 496.153 152.829 494.678C155.033 493.203 157.537 492.235 160.161 491.845C162.784 491.454 165.461 491.651 168 492.42" stroke="#737999" stroke-width="1.7" stroke-linecap="round" stroke-linejoin="round"/>
<path d="M117.65 539.69C112.503 539.406 107.671 537.126 104.18 533.334C100.689 529.542 98.8147 524.537 98.9567 519.385C99.0987 514.232 101.245 509.339 104.94 505.745C108.635 502.151 113.586 500.14 118.74 500.14C119.407 500.14 120.037 500.17 120.63 500.23" stroke="#737999" stroke-width="1.7" stroke-linecap="round" stroke-linejoin="round"/>
<path d="M132.349 238.09L116.899 250.46" stroke="#A7464F" stroke-width="3.41" stroke-linecap="round" stroke-linejoin="round"/>
<path d="M134 250.89L114.38 266.49" stroke="#A7464F" stroke-width="3.41" stroke-linecap="round" stroke-linejoin="round"/>
<path fill-rule="evenodd" clip-rule="evenodd" d="M220.16 250.3C219.92 246.18 221.16 237.03 224.82 228.3C226.16 225.14 226.24 219.94 221.53 219.94C216.17 219.94 209 230.7 212.53 243.51C216.06 256.32 220.51 256.12 220.16 250.3Z" fill="#F77F89"/>
<path fill-rule="evenodd" clip-rule="evenodd" d="M203.559 226.09C207.819 226.09 220.769 251.71 220.679 254.82C220.589 257.93 219.239 262.66 217.229 262.42C215.219 262.18 198.399 240.77 198.399 233.5C198.399 229.29 200.449 226.09 203.559 226.09Z" fill="#F77F89"/>
<path fill-rule="evenodd" clip-rule="evenodd" d="M198 240.81C203.31 240.81 217.31 261.23 217.41 263.57C217.51 265.91 214.68 268.06 212.34 268.16C210 268.26 193.27 254.54 193.27 248.16C193.24 244.26 195 240.81 198 240.81Z" fill="#F77F89"/>
<path fill-rule="evenodd" clip-rule="evenodd" d="M202.899 279C205.199 278.89 211.599 273.17 211.599 268.67C211.599 266.9 207.129 262.32 204.889 262.46C202.649 262.6 198.079 271.21 198.169 273.4C198.259 275.59 199.889 279.11 202.899 279Z" fill="#F77F89"/>
<path d="M211.6 235.56C216.19 243.2 220.73 252.98 220.68 254.82" stroke="#A7464F" stroke-width="3.41" stroke-linecap="round" stroke-linejoin="round"/>
<path d="M201.21 242.31C207.53 247.07 217.3 261.62 217.38 263.57" stroke="#A94B53" stroke-width="3.41" stroke-linecap="round" stroke-linejoin="round"/>
<path fill-rule="evenodd" clip-rule="evenodd" d="M63.0596 58.49C63.0596 35.6 81.3696 17 104 17C126.63 17 144.9 35.56 144.9 58.45C144.9 81.34 126.55 99.94 104 99.94C81.4496 99.94 63.0596 81.39 63.0596 58.49Z" fill="#F77F89"/>
<path fill-rule="evenodd" clip-rule="evenodd" d="M97.9397 61.48C98.3797 58.84 99.9397 56.89 101.5 57.15C103.06 57.41 103.92 59.75 103.5 62.39C103.08 65.03 101.5 66.98 99.9397 66.73C98.3797 66.48 97.5097 64.13 97.9397 61.48Z" fill="#B5545C"/>
<path fill-rule="evenodd" clip-rule="evenodd" d="M128.749 63.46C129.159 60.99 130.639 59.17 132.069 59.41C133.499 59.65 134.329 61.84 133.929 64.31C133.529 66.78 132.029 68.59 130.599 68.31C129.169 68.03 128.339 65.93 128.749 63.46Z" fill="#B5545C"/>
<path fill-rule="evenodd" clip-rule="evenodd" d="M69.31 76.74C71.74 83.5 77.85 118.63 76.31 131.39C82.71 141.09 111.23 138.39 119.73 130.18C115.5 118.37 115.34 109.9 116.89 99.94C118.36 90.62 66.88 70 69.31 76.74Z" fill="#F77F89"/>
<path fill-rule="evenodd" clip-rule="evenodd" d="M120.189 16C120.539 25.85 111.549 35.26 87.1093 39.93C89.7893 46.84 90.0093 57.23 76.6593 59.1C61.0893 61.26 59.8193 41.37 59.8193 41.37L83.1393 13.82C83.1393 13.82 119.849 6.13001 120.189 16Z" fill="black"/>
<path fill-rule="evenodd" clip-rule="evenodd" d="M112.85 9.06999C111.85 17.82 121.92 39.07 145.24 39.65C161.82 39.65 113.82 0.30999 112.85 9.06999Z" fill="black"/>
<path fill-rule="evenodd" clip-rule="evenodd" d="M85.7996 98.47C83.5596 95.64 86.7996 82.74 90.3296 76.83C94.5896 74.32 109.7 76.41 117.49 69.71C119.78 67.71 121.01 69.19 122.79 71.38C125.92 75.22 135.33 77.21 138.85 79.38C139.37 84.98 134.23 97.8 132.01 100.67C128.53 105.22 96.7196 105.63 85.7996 98.47Z" fill="white"/>
<path d="M92.39 78C90.33 74.56 81.33 59.17 78.46 55.27" stroke="white" stroke-width="3.41" stroke-linecap="round" stroke-linejoin="round"/>
<path d="M87.5696 97.65C81.4796 97.65 66.9996 78.6 65.3496 72.21" stroke="white" stroke-width="3.41" stroke-linecap="round" stroke-linejoin="round"/>
<path fill-rule="evenodd" clip-rule="evenodd" d="M56.0596 61.89C56.0596 59.2536 56.8414 56.6764 58.3061 54.4843C59.7708 52.2921 61.8527 50.5836 64.2884 49.5747C66.7241 48.5658 69.4044 48.3018 71.9901 48.8161C74.5759 49.3305 76.9511 50.6 78.8153 52.4643C80.6795 54.3285 81.9491 56.7037 82.4634 59.2895C82.9778 61.8752 82.7138 64.5554 81.7049 66.9912C80.696 69.4269 78.9874 71.5088 76.7953 72.9735C74.6032 74.4382 72.026 75.22 69.3896 75.22C65.8542 75.22 62.4637 73.8156 59.9638 71.3157C57.464 68.8159 56.0596 65.4253 56.0596 61.89Z" fill="#F77F89"/>
<path d="M140.29 724.16L50.4297 723.54" stroke="#4C4FD9" stroke-width="1.7" stroke-linecap="round" stroke-linejoin="round"/>
<path d="M142.21 728.57C139.74 720.76 130.08 705.46 92.3896 705.09V701.3" stroke="#4C4FD9" stroke-width="1.7" stroke-linecap="round" stroke-linejoin="round"/>
<path d="M50.4297 713.18C52.6622 713.18 54.8728 713.62 56.9353 714.474C58.9978 715.328 60.8719 716.581 62.4505 718.159C64.0291 719.738 65.2813 721.612 66.1356 723.674C66.99 725.737 67.4297 727.947 67.4297 730.18C67.4297 730.63 67.4297 731.07 67.4297 731.51" stroke="#4C4FD9" stroke-width="1.7" stroke-linecap="round" stroke-linejoin="round"/>
<path d="M102.35 713.72L106.76 706.08" stroke="#4C4FD9" stroke-width="1.7" stroke-linecap="round" stroke-linejoin="round"/>
<path d="M112.729 715.52L116.489 708.02" stroke="#4C4FD9" stroke-width="1.7" stroke-linecap="round" stroke-linejoin="round"/>
<path d="M122.55 717.49L125.82 711.42" stroke="#4C4FD9" stroke-width="1.7" stroke-linecap="round" stroke-linejoin="round"/>
<path d="M104.689 351.64L151.389 350.18" stroke="#737999" stroke-width="1.7" stroke-linecap="round" stroke-linejoin="round"/>
<path d="M50.0693 698.13L92.3893 697.44" stroke="#4C4FD9" stroke-width="1.7" stroke-linecap="round" stroke-linejoin="round"/>
<path d="M93.1895 694L136.709 693.65" stroke="#4C4FD9" stroke-width="1.7" stroke-linecap="round" stroke-linejoin="round"/>
<path d="M185.19 722.82L138.77 721.82" stroke="#4C4FD9" stroke-width="1.7" stroke-linecap="round" stroke-linejoin="round"/>
<path d="M150.67 703.06L146.67 710.17" stroke="#4C4FD9" stroke-width="1.7" stroke-linecap="round" stroke-linejoin="round"/>
<path d="M157.34 704.65L153.34 711.77" stroke="#4C4FD9" stroke-width="1.7" stroke-linecap="round" stroke-linejoin="round"/>
<path d="M164.46 706.61L160.46 713.73" stroke="#4C4FD9" stroke-width="1.7" stroke-linecap="round" stroke-linejoin="round"/>
<path d="M32.49 419.2C17.49 425.48 6.23004 414.29 6.14004 403.2C6.05004 392.11 10.44 325.94 11.04 319.34" stroke="#C9C9C9" stroke-width="2" stroke-linecap="round" stroke-linejoin="round"/>
<path d="M189.82 174C190.6 151.36 166.76 141 156.95 136.56" stroke="#C9C9C9" stroke-width="2" stroke-linecap="round" stroke-linejoin="round"/>
<path d="M185.16 400C187.03 387.93 187.16 355.27 184 342.81" stroke="#C9C9C9" stroke-width="2" stroke-linecap="round" stroke-linejoin="round"/>
</g>
<defs>
<clipPath id="clip0">
<rect width="225.62" height="733.07" fill="white"/>
</clipPath>
</defs>
</svg>
