<svg width="16" height="16" viewBox="0 0 16 16" fill="none" xmlns="http://www.w3.org/2000/svg">
<path d="M0 0H15.9405V16.0004H0V0Z" fill="#2B6FF3"/>
<path d="M15.8252 7.6454L8.32523 0.145396C8.23155 0.0522709 8.10482 0 7.97273 0C7.84064 0 7.71391 0.0522709 7.62023 0.145396L0.120229 7.6454C0.0383153 7.74105 -0.00448769 7.86408 0.000372891 7.98992C0.00523347 8.11576 0.0573997 8.23513 0.146447 8.32418C0.235494 8.41323 0.354864 8.46539 0.480702 8.47025C0.60654 8.47511 0.729578 8.43231 0.825229 8.3504L7.97023 1.2054L15.1152 8.3554C15.2109 8.43731 15.3339 8.48011 15.4598 8.47525C15.5856 8.47039 15.705 8.41823 15.794 8.32918C15.8831 8.24013 15.9352 8.12076 15.9401 7.99492C15.9449 7.86909 15.9021 7.74605 15.8202 7.6504L15.8252 7.6454Z" fill="white"/>
<path d="M12.9707 15.0004H10.4707V10.0004H5.4707V15.0004H2.9707V8.00037L1.9707 9.00037V15.0004C1.9707 15.2656 2.07606 15.5199 2.2636 15.7075C2.45113 15.895 2.70549 16.0004 2.9707 16.0004H6.4707V11.0004H9.4707V16.0004H12.9707C13.2359 16.0004 13.4903 15.895 13.6778 15.7075C13.8653 15.5199 13.9707 15.2656 13.9707 15.0004V8.88037L12.9707 7.88037V15.0004Z" fill="white"/>
</svg>
