<svg width="565" height="697" viewBox="0 0 565 697" fill="none" xmlns="http://www.w3.org/2000/svg">
<path d="M356.486 192.679H301.74C301.23 192.679 300.74 192.895 300.379 193.28C300.017 193.665 299.814 194.186 299.814 194.731V223.461C299.814 224.005 300.017 224.527 300.379 224.912C300.74 225.297 301.23 225.513 301.74 225.513H356.486C356.997 225.513 357.487 225.297 357.848 224.912C358.209 224.527 358.412 224.005 358.412 223.461V194.731C358.412 194.186 358.209 193.665 357.848 193.28C357.487 192.895 356.997 192.679 356.486 192.679Z" stroke="#AADAF1" stroke-width="2" stroke-linecap="round" stroke-linejoin="round"/>
<path d="M327.163 159.772H272.427C271.916 159.772 271.426 159.988 271.065 160.373C270.704 160.758 270.501 161.28 270.501 161.824V190.555C270.501 191.099 270.704 191.621 271.065 192.006C271.426 192.39 271.916 192.607 272.427 192.607H327.163C327.674 192.607 328.163 192.39 328.525 192.006C328.886 191.621 329.089 191.099 329.089 190.555V161.824C329.089 161.28 328.886 160.758 328.525 160.373C328.163 159.988 327.674 159.772 327.163 159.772Z" stroke="#AADAF1" stroke-width="2" stroke-linecap="round" stroke-linejoin="round"/>
<path d="M297.841 192.679H243.105C242.594 192.679 242.104 192.895 241.743 193.28C241.382 193.665 241.179 194.186 241.179 194.731V223.461C241.179 224.005 241.382 224.527 241.743 224.912C242.104 225.297 242.594 225.513 243.105 225.513H297.841C298.351 225.513 298.841 225.297 299.202 224.912C299.564 224.527 299.766 224.005 299.766 223.461V194.731C299.766 194.186 299.564 193.665 299.202 193.28C298.841 192.895 298.351 192.679 297.841 192.679Z" stroke="#AADAF1" stroke-width="2" stroke-linecap="round" stroke-linejoin="round"/>
<path d="M384.875 225.575H330.139C329.628 225.575 329.138 225.791 328.777 226.176C328.416 226.561 328.213 227.083 328.213 227.627V256.357C328.213 256.902 328.416 257.424 328.777 257.809C329.138 258.193 329.628 258.41 330.139 258.41H384.875C385.385 258.41 385.875 258.193 386.237 257.809C386.598 257.424 386.801 256.902 386.801 256.357V227.627C386.801 227.083 386.598 226.561 386.237 226.176C385.875 225.791 385.385 225.575 384.875 225.575Z" stroke="#AADAF1" stroke-width="2" stroke-linecap="round" stroke-linejoin="round"/>
<path fill-rule="evenodd" clip-rule="evenodd" d="M294.075 578.559H479.565C480.791 578.559 481.966 579.078 482.833 580.001C483.7 580.925 484.187 582.178 484.187 583.484C484.185 584.789 483.696 586.039 482.83 586.96C481.963 587.882 480.789 588.399 479.565 588.399H294.075C292.851 588.399 291.677 587.882 290.81 586.96C289.944 586.039 289.456 584.789 289.453 583.484C289.453 582.178 289.94 580.925 290.807 580.001C291.674 579.078 292.85 578.559 294.075 578.559Z" fill="white"/>
<path fill-rule="evenodd" clip-rule="evenodd" d="M4.61268 608.192H190.131C190.737 608.191 191.337 608.317 191.898 608.564C192.458 608.81 192.967 609.172 193.395 609.629C193.824 610.085 194.164 610.628 194.395 611.225C194.626 611.822 194.745 612.461 194.744 613.107C194.745 613.753 194.626 614.393 194.395 614.99C194.164 615.587 193.824 616.129 193.395 616.586C192.967 617.042 192.458 617.404 191.898 617.651C191.337 617.897 190.737 618.024 190.131 618.022H4.61268C3.38932 618.022 2.21607 617.504 1.35102 616.583C0.485977 615.661 0 614.411 0 613.107H0C0 611.804 0.485977 610.554 1.35102 609.632C2.21607 608.71 3.38932 608.192 4.61268 608.192Z" fill="white"/>
<path fill-rule="evenodd" clip-rule="evenodd" d="M408.785 582.396C393.318 582.404 378.191 587.236 365.272 596.296C352.352 605.357 342.204 618.249 336.08 633.383C331.097 629.1 324.896 626.748 318.494 626.713C312.092 626.677 305.869 628.96 300.844 633.188C297.358 624.338 291.614 616.706 284.264 611.158C276.914 605.609 268.252 602.366 259.261 601.795C250.269 601.225 241.307 603.35 233.391 607.93C225.475 612.51 218.922 619.362 214.475 627.708C209.844 624.659 204.634 622.748 199.223 622.115C193.811 621.483 188.336 622.145 183.195 624.053C178.055 625.961 173.378 629.067 169.507 633.145C165.636 637.223 162.667 642.17 160.817 647.625C161.665 647.625 162.464 647.368 163.321 647.368H529.937C528.596 642.118 526.006 637.325 522.417 633.454C518.828 629.582 514.362 626.764 509.451 625.271C504.54 623.778 499.35 623.66 494.384 624.931C489.419 626.201 484.844 628.815 481.105 632.521C474.892 617.608 464.753 604.935 451.917 596.038C439.08 587.141 424.098 582.403 408.785 582.396Z" fill="#DEDEDE"/>
<path fill-rule="evenodd" clip-rule="evenodd" d="M140.952 637.538H560.387C561.612 637.541 562.785 638.061 563.65 638.985C564.514 639.908 565 641.159 565 642.464C564.997 643.766 564.511 645.015 563.646 645.936C562.782 646.857 561.61 647.376 560.387 647.378H140.952C139.729 647.376 138.557 646.857 137.693 645.936C136.828 645.015 136.341 643.766 136.339 642.464C136.339 641.159 136.825 639.908 137.689 638.985C138.554 638.061 139.727 637.541 140.952 637.538Z" fill="#DEDEDE"/>
<path fill-rule="evenodd" clip-rule="evenodd" d="M72.8689 581.175L60.668 599.388L85.8018 632.952L97.3575 611.404L72.8689 581.175Z" fill="#F77F89"/>
<path fill-rule="evenodd" clip-rule="evenodd" d="M59.5408 591.108L30.6514 626.672L76.0367 683.107C76.0367 683.107 106.159 682.758 115.673 682.758C115.48 670.445 107.083 644.936 83.702 645.921C88.4206 637.097 91.7718 629.822 91.7718 629.822L59.5408 591.108Z" fill="#6367FD"/>
<path d="M83.6833 645.952C70.6157 641.653 64.6741 647.255 55.5065 657.619C49.1027 664.863 35.7558 664.247 27.5801 660.092" stroke="#4C4FD9" stroke-width="2" stroke-linecap="round" stroke-linejoin="round"/>
<path d="M53.7344 691.182C58.041 693.153 62.4879 694.755 67.0331 695.974C78.9934 684.687 86.0713 657.896 83.8275 645.952" stroke="#4C4FD9" stroke-width="2" stroke-linecap="round" stroke-linejoin="round"/>
<path d="M47.8694 605.104C50.6951 607.382 52.8858 610.437 54.2072 613.941C55.5286 617.445 55.9309 621.265 55.3709 624.994C54.811 628.722 53.3099 632.218 51.0284 635.108C48.7469 637.997 45.7709 640.171 42.4189 641.396" stroke="#4C4FD9" stroke-width="2" stroke-linecap="round" stroke-linejoin="round"/>
<path d="M35.6885 620.444L80.3611 672.425L113.459 670.373" stroke="#4C4FD9" stroke-width="2" stroke-linecap="round" stroke-linejoin="round"/>
<path fill-rule="evenodd" clip-rule="evenodd" d="M144.89 430.689L68.5068 579.852L97.7526 616.329L235.777 464.571L205.481 418.951L144.89 430.689Z" fill="#F7D167"/>
<path d="M113.632 598.875L79.5615 558.253" stroke="#FF3274" stroke-width="2" stroke-linecap="round" stroke-linejoin="round"/>
<path fill-rule="evenodd" clip-rule="evenodd" d="M205.471 418.961L144.899 430.7L114.084 490.921L166.981 489.577L184.227 521.252L235.776 464.591L205.471 418.961Z" fill="#BF9111"/>
<path d="M81.4297 595.971C112.727 556.908 208.543 437.852 208.543 437.852" stroke="#FF3274" stroke-width="2" stroke-linecap="round" stroke-linejoin="round"/>
<path fill-rule="evenodd" clip-rule="evenodd" d="M289.453 630.12L298.678 650.641L340.029 642.669L333.192 617.95L289.453 630.12Z" fill="#F77F89"/>
<path fill-rule="evenodd" clip-rule="evenodd" d="M292.544 650.724L306.671 693.819C306.671 693.819 388.399 676.376 394.61 674.662C383.054 645.727 359.346 650.58 348.946 653.35C346.338 648.079 344.011 642.656 341.974 637.107L292.544 650.724Z" fill="#6367FD"/>
<path d="M348.252 643.438C349.927 637.631 353.818 633.762 356.919 634.788C360.019 635.815 361.213 641.335 359.538 647.101C357.862 652.868 353.972 656.767 350.871 655.751C347.77 654.735 346.576 649.236 348.252 643.438Z" stroke="#4C4FD9" stroke-width="2" stroke-linecap="round" stroke-linejoin="round"/>
<path d="M361.946 642.7C366.279 637.969 371.672 636.482 374.002 639.385C376.332 642.289 374.695 648.477 370.362 653.207C366.029 657.937 360.636 659.435 358.305 656.531C355.975 653.628 357.612 647.461 361.946 642.7Z" stroke="#4C4FD9" stroke-width="2" stroke-linecap="round" stroke-linejoin="round"/>
<path fill-rule="evenodd" clip-rule="evenodd" d="M324.245 304.337C329.368 308.749 334.684 314.003 341.511 316.753C351.719 319.39 370.401 341.204 370.401 345.904C370.401 350.357 366.674 351.855 364.353 352.06C362.35 352.194 358.084 347.258 357.006 345.853C358.864 350.367 359.943 356.483 357.882 358.402C355.821 360.32 352.855 360.987 350.833 358.504C347.511 354.4 348.329 349.742 348.021 347.012C346.384 343.677 341.925 336.259 340.038 335.356C338.719 335.428 336.735 335.92 336.359 338.167C335.984 340.414 340.885 345.432 341.434 347.525C341.434 350.183 338.709 353.559 336.359 352.892C333.682 352.132 325.401 343.564 323.571 341.225C321.106 338.075 319.989 331.21 318.669 328.912C317.35 326.614 312.227 321.729 311.274 320.703C310.32 319.677 319.132 299.915 324.245 304.337Z" fill="#F77F89"/>
<path fill-rule="evenodd" clip-rule="evenodd" d="M273.111 196.773C291.514 213.426 319.055 279.013 336.755 295.154C334.906 305.281 305.583 343 284.86 334.012C258.898 322.745 259.215 184.203 273.111 196.773Z" fill="#3B4161"/>
<path fill-rule="evenodd" clip-rule="evenodd" d="M287.411 290.259L341.974 620.382L284.811 634.747L209.747 424.872L228.39 279.013L287.411 290.259Z" fill="#F7D167"/>
<path d="M239.234 507.307L212.396 432.259" stroke="#FF3274" stroke-width="2" stroke-linecap="round" stroke-linejoin="round"/>
<path d="M309.665 628.509L221.485 333.037" stroke="#FF3274" stroke-width="2" stroke-linecap="round" stroke-linejoin="round"/>
<path d="M292.245 319.544C284.542 322.981 245.059 330.749 229.806 329.045" stroke="#FF3274" stroke-width="2" stroke-linecap="round" stroke-linejoin="round"/>
<path fill-rule="evenodd" clip-rule="evenodd" d="M126.68 240.761L230.21 252.469C236.383 253.166 240.803 259.364 240.129 266.321L223.315 435.061C222.622 442.007 217.065 447.076 210.893 446.348L107.363 434.681C101.19 433.983 96.7698 427.786 97.4439 420.829L114.248 252.089C114.941 245.132 120.507 240.104 126.68 240.761Z" fill="#6367FD"/>
<path d="M130.079 343.575C130.079 335.254 132.395 327.121 136.733 320.202C141.071 313.284 147.238 307.892 154.452 304.708C161.667 301.523 169.605 300.69 177.264 302.314C184.923 303.937 191.958 307.944 197.479 313.827C203.001 319.711 206.761 327.207 208.285 335.367C209.808 343.528 209.026 351.987 206.038 359.674C203.05 367.361 197.989 373.932 191.496 378.554C185.004 383.177 177.37 385.644 169.561 385.644C159.09 385.644 149.048 381.212 141.643 373.322C134.239 365.433 130.079 354.732 130.079 343.575Z" stroke="#4C4FD9" stroke-width="2" stroke-linecap="round" stroke-linejoin="round"/>
<path fill-rule="evenodd" clip-rule="evenodd" d="M167.02 52.2278C167.02 41.7515 172.557 33.2555 179.394 33.2555C186.231 33.2555 191.778 41.7515 191.778 52.2278C191.778 62.7042 186.231 71.2002 179.394 71.2002C172.557 71.2002 167.02 62.7042 167.02 52.2278Z" fill="#F77F89"/>
<path fill-rule="evenodd" clip-rule="evenodd" d="M173.991 62.1808C173.991 53.8456 176.311 45.6976 180.657 38.7673C185.003 31.8369 191.181 26.4356 198.408 23.2463C205.635 20.057 213.588 19.2231 221.26 20.8499C228.932 22.4768 235.979 26.4914 241.51 32.386C247.041 38.2806 250.807 45.7904 252.332 53.9657C253.857 62.141 253.072 70.6146 250.077 78.3147C247.082 86.0149 242.012 92.5958 235.506 97.2251C229.001 101.854 221.354 104.324 213.531 104.322C208.338 104.322 203.196 103.232 198.398 101.114C193.6 98.9963 189.241 95.892 185.569 91.9787C181.897 88.0653 178.985 83.4196 176.998 78.3069C175.012 73.1941 173.99 67.7144 173.991 62.1808Z" fill="#F77F89"/>
<path fill-rule="evenodd" clip-rule="evenodd" d="M160.606 331.098C158.767 337.634 152.806 351.229 158.478 375.558C147.731 393.258 152.748 405.725 177.362 408.854C181.503 403.467 185.653 399.938 190.275 392.16C191.778 385.162 191.643 374.419 191.778 371.505C192.038 365.615 183.939 342.313 185.952 331.847C187.964 321.381 162.445 324.551 160.606 331.098Z" fill="#F77F89"/>
<path fill-rule="evenodd" clip-rule="evenodd" d="M209.68 118.462C152.787 118.462 131.13 245.85 137.341 327.363C149.137 335.294 196.217 338.383 209.68 334.617C212.569 320.303 213.532 260.4 214.177 250.652C245.599 253.936 240.177 259.118 236.383 303.927C252.754 304.532 274.806 299.822 291.273 292.455C293.584 261.734 276.636 118.462 209.68 118.462Z" fill="#3B4161"/>
<path d="M130.079 248.487L137.59 171.89C138.765 159.908 144.359 148.914 153.141 141.327C161.924 133.739 173.175 130.18 184.42 131.431L192.48 132.324C203.725 133.576 214.043 139.536 221.164 148.894C228.285 158.252 231.625 170.241 230.451 182.223L222.747 260.975" stroke="#6367FD" stroke-width="6.77" stroke-linecap="round" stroke-linejoin="round"/>
<path fill-rule="evenodd" clip-rule="evenodd" d="M186.404 86.8377C189.37 100.413 190.112 119.529 189.621 127.04C197.161 131.78 216.709 135.074 226.108 121.632C221.659 110.171 220.667 104.63 221.043 98.0323C221.418 91.4346 183.438 73.2626 186.404 86.8377Z" fill="#F77F89"/>
<path fill-rule="evenodd" clip-rule="evenodd" d="M199.01 101.388C198.172 94.1024 203.093 76.9565 205.905 74.576C232.339 75.602 248.748 55.5421 251.415 50.0525C253.883 53.5429 255.679 57.5181 256.702 61.7499C257.386 64.5408 256.789 66.5007 252.311 70.5024C251.174 86.9506 237.163 113.064 199.01 101.388Z" fill="white"/>
<path d="M208.004 76.3101C208.004 76.3101 183.93 55.3164 176.938 54.2903" stroke="white" stroke-width="3.05" stroke-linecap="round" stroke-linejoin="round"/>
<path fill-rule="evenodd" clip-rule="evenodd" d="M227.639 54.321C227.639 50.6681 228.756 47.7028 230.133 47.7028C231.51 47.7028 232.627 50.6681 232.627 54.321C232.627 57.9739 231.51 60.9393 230.133 60.9393C228.756 60.9393 227.639 57.9739 227.639 54.321Z" fill="#CB5D66"/>
<path d="M211.798 311.838C202.64 313.244 152.815 310.945 136.339 303.722" stroke="#737999" stroke-width="2" stroke-linecap="round" stroke-linejoin="round"/>
<path d="M214.177 250.652C213.531 230.572 230.682 165.374 196.785 138.563" stroke="#737999" stroke-width="2" stroke-linecap="round" stroke-linejoin="round"/>
<path d="M214.186 250.54L196.785 258.481" stroke="#737999" stroke-width="2" stroke-linecap="round" stroke-linejoin="round"/>
<path d="M197.546 248.775L214.234 250.026" stroke="#737999" stroke-width="2" stroke-linecap="round" stroke-linejoin="round"/>
<path d="M200.021 236.267L214.253 249.893" stroke="#737999" stroke-width="2" stroke-linecap="round" stroke-linejoin="round"/>
<path d="M291.321 292.435C292.284 279.003 289.626 244.065 280.729 208.993" stroke="#737999" stroke-width="2" stroke-linecap="round" stroke-linejoin="round"/>
<path d="M323.668 278.88C315.964 293.368 297.667 309.016 291.022 312.125" stroke="#737999" stroke-width="2" stroke-linecap="round" stroke-linejoin="round"/>
<path d="M270.107 325.095C269.298 319.903 266.39 300.623 266.39 300.623" stroke="#FF3274" stroke-width="2" stroke-linecap="round" stroke-linejoin="round"/>
<path d="M338.575 599.85L276.087 610.357" stroke="#FF3274" stroke-width="2" stroke-linecap="round" stroke-linejoin="round"/>
<path d="M320.673 490.787C319.567 490.92 318.454 490.985 317.341 490.982C309.967 490.984 302.849 488.107 297.331 482.896C291.813 477.685 288.277 470.5 287.393 462.7C286.508 454.9 288.336 447.025 292.53 440.564C296.725 434.102 302.996 429.502 310.157 427.632" stroke="#FF3274" stroke-width="2" stroke-linecap="round" stroke-linejoin="round"/>
<path d="M303.984 685.641L391.394 667.982" stroke="#4C4FD9" stroke-width="2" stroke-linecap="round" stroke-linejoin="round"/>
<path d="M296.993 665.397C299.956 664.158 303.157 663.71 306.319 664.09C309.481 664.47 312.508 665.667 315.137 667.577C317.766 669.488 319.918 672.053 321.404 675.051C322.891 678.049 323.668 681.389 323.668 684.779C323.67 686.587 323.454 688.387 323.023 690.135" stroke="#4C4FD9" stroke-width="2" stroke-linecap="round" stroke-linejoin="round"/>
<path d="M199.423 99.8485C196.4 98.6275 184.247 94.1127 177.93 80.5479" stroke="white" stroke-width="3.05" stroke-linecap="round" stroke-linejoin="round"/>
<path fill-rule="evenodd" clip-rule="evenodd" d="M166.307 70.2049C166.305 67.5191 167.051 64.8931 168.45 62.6591C169.849 60.4251 171.839 58.6836 174.167 57.6548C176.495 56.6261 179.058 56.3564 181.53 56.8799C184.002 57.4033 186.273 58.6964 188.056 60.5956C189.838 62.4947 191.052 64.9145 191.543 67.5488C192.034 70.183 191.781 72.9134 190.816 75.3943C189.85 77.8753 188.216 79.9953 186.119 81.4862C184.022 82.9771 181.558 83.7718 179.037 83.7698C175.662 83.767 172.425 82.337 170.038 79.7937C167.651 77.2504 166.309 73.8017 166.307 70.2049Z" fill="#F77F89"/>
<path d="M191.219 74.1758C190.419 76.9534 188.804 79.3844 186.611 81.1114C184.419 82.8383 181.764 83.7701 179.037 83.7697" stroke="#CB5D66" stroke-width="2" stroke-linecap="round" stroke-linejoin="round"/>
<path d="M168.993 61.8627C170.831 59.3471 173.443 57.603 176.37 56.9375" stroke="#CB5D66" stroke-width="2" stroke-linecap="round" stroke-linejoin="round"/>
<path fill-rule="evenodd" clip-rule="evenodd" d="M199.337 2.19585C193.884 3.53397 188.732 6.0035 184.175 9.46341C179.618 12.9233 175.746 17.3058 172.779 22.3606C169.812 27.4154 167.808 33.0435 166.883 38.9235C165.957 44.8034 166.128 50.8201 167.385 56.6297L250.423 36.2414C249.167 30.4314 246.849 24.942 243.602 20.0865C240.355 15.2311 236.242 11.1048 231.498 7.94324C226.754 4.78172 221.472 2.64693 215.954 1.66078C210.436 0.674634 204.789 0.85645 199.337 2.19585Z" fill="#F2E283"/>
<path fill-rule="evenodd" clip-rule="evenodd" d="M218.857 29.6848L278.86 14.9502C283.829 13.7189 288.49 15.7813 289.337 19.5265C290.146 23.282 286.776 27.3145 281.797 28.5458L221.794 43.2804C216.815 44.5015 212.164 42.4493 211.317 38.6938C210.498 34.9383 213.878 30.9058 218.857 29.6848Z" fill="#F2E283"/>
<path d="M156.725 400.605C159.288 397.708 161.588 394.557 163.591 391.195" stroke="#CB5D66" stroke-width="2" stroke-linecap="round" stroke-linejoin="round"/>
<path d="M167.356 406.751C171.401 402.585 177.323 393.791 180.347 388.517" stroke="#CB5D66" stroke-width="2" stroke-linecap="round" stroke-linejoin="round"/>
<path d="M337.515 336.146C343.581 330.779 353.048 341.769 357.352 346.202" stroke="#CB5D66" stroke-width="2" stroke-linecap="round" stroke-linejoin="round"/>
<path d="M181.243 75.7253C180.548 76.0525 179.797 76.2203 179.038 76.2178C178.191 76.2192 177.357 76.0122 176.598 75.6129C175.84 75.2137 175.178 74.633 174.665 73.9163C174.152 73.1996 173.801 72.3661 173.64 71.4811C173.479 70.5961 173.513 69.6835 173.738 68.8144C173.962 67.9454 174.373 67.1435 174.937 66.4714C175.5 65.7993 176.202 65.2752 176.988 64.9399C177.773 64.6046 178.62 64.4674 179.464 64.5388C180.307 64.6102 181.124 64.8883 181.849 65.3515" stroke="#CB5D66" stroke-width="2" stroke-linecap="round" stroke-linejoin="round"/>
<path d="M219.617 2.48316C213.668 0.841949 207.455 0.590866 201.406 1.74712C195.357 2.90337 189.613 5.43962 184.57 9.18203C179.527 12.9244 175.302 17.7845 172.187 23.4292C169.071 29.0738 167.137 35.3696 166.519 41.8849" stroke="#FF3274" stroke-width="2" stroke-linecap="round" stroke-linejoin="round"/>
<path d="M251.415 50.0525C253.882 53.5429 255.679 57.5181 256.701 61.7499C257.385 64.5408 256.788 66.5007 252.31 70.5024C251.424 83.2567 242.806 101.819 221.196 104.076" stroke="#C9C9C9" stroke-width="2" stroke-linecap="round" stroke-linejoin="round"/>
</svg>
